<?xml version="1.0" encoding="UTF-8" standalone="no"?>
<!DOCTYPE svg PUBLIC "-//W3C//DTD SVG 1.1//EN" "http://www.w3.org/Graphics/SVG/1.1/DTD/svg11.dtd">
<svg width="100%" height="100%" viewBox="0 0 3000 3000" version="1.1" xmlns="http://www.w3.org/2000/svg" xmlns:xlink="http://www.w3.org/1999/xlink" xml:space="preserve" xmlns:serif="http://www.serif.com/" style="fill-rule:evenodd;clip-rule:evenodd;stroke-linejoin:round;stroke-miterlimit:2;">
    <g transform="matrix(0.608889,0,0,0.608889,0.411152,432.55)">
        <path d="M359.526,1899.2L359.526,1544.54C359.526,1508.2 349.064,1483.56 328.138,1470.62C307.212,1457.67 272.52,1451.2 224.06,1451.2L224.06,1144.75L958.386,1144.75L958.386,1451.2C916.535,1451.2 887.486,1457.67 871.242,1470.62C854.997,1483.56 846.874,1504.89 846.874,1534.63L846.874,1667.62L1131.02,1667.62L1131.02,1534.63C1131.02,1504.89 1122.76,1483.56 1106.24,1470.62C1089.72,1457.67 1060.81,1451.2 1019.51,1451.2L1019.51,1144.75L1753.01,1144.75L1753.01,1451.2C1704.55,1451.2 1670,1457.67 1649.35,1470.62C1628.7,1483.56 1618.37,1508.2 1618.37,1544.54L1618.37,1962.51C1618.37,1998.3 1628.7,2022.67 1649.35,2035.61C1670,2048.55 1704.55,2055.02 1753.01,2055.02L1753.01,2361.47L1019.51,2361.47L1019.51,2055.02C1060.81,2055.02 1089.72,2048.55 1106.24,2035.61C1122.76,2022.67 1131.02,2001.6 1131.02,1972.42L1131.02,1818.78L846.874,1818.78L846.874,1972.42C846.874,2001.6 854.997,2022.67 871.242,2035.61C887.486,2048.55 916.535,2055.02 958.386,2055.02L958.386,2361.47L808.837,2361.47C808.837,2338.4 796.464,2318.19 777.997,2307.13C777.696,2305.45 777.385,2303.77 777.064,2302.1C792.206,2286.63 799.031,2263.79 793.027,2241.38C786.641,2217.55 767.44,2200.55 744.824,2195.8C757.458,2176.45 759.011,2150.85 746.675,2129.48C734.339,2108.11 711.392,2096.66 688.317,2097.93C695.512,2075.96 690.387,2050.83 672.941,2033.39C655.495,2015.94 630.364,2010.82 608.404,2018.01C609.67,1994.94 598.215,1971.99 576.848,1959.65C555.481,1947.32 529.88,1948.87 510.53,1961.51C505.781,1938.89 488.777,1919.69 464.945,1913.3C442.54,1907.3 419.696,1914.12 404.227,1929.27C402.555,1928.94 400.88,1928.63 399.202,1928.33C390.56,1913.9 376.337,1903.2 359.526,1899.2Z" style="fill:rgb(250,160,43);fill-rule:nonzero;"/>
        <g transform="matrix(0.970181,0,0,0.970181,106.269,52.301)">
            <path d="M3061.69,1144.75L4119.54,1144.75C4198.28,1144.75 4274.55,1155.21 4348.34,1176.14C4422.13,1197.07 4487.8,1231.21 4545.35,1278.57C4602.89,1325.92 4649.15,1388.56 4684.12,1466.48C4719.09,1544.4 4736.57,1640.36 4736.57,1754.35C4736.57,1868.34 4719.36,1964.16 4684.94,2041.8C4650.53,2119.45 4603.72,2181.95 4544.52,2229.31C4485.32,2276.67 4416.08,2310.81 4336.78,2331.73C4257.48,2352.66 4173.23,2363.12 4084.02,2363.12L3062.43,2362.07C3090.52,2347.93 3116.89,2330.71 3139.98,2309.49C3171.5,2280.53 3196.84,2244.96 3212.15,2205.22C3226.06,2169.1 3232.47,2129.14 3235.86,2089.63C3237.15,2074.61 3237.88,2059.46 3237.96,2044.31C3299.18,2041.83 3341.84,2038.93 3347.22,2035.61C3368.14,2022.67 3378.6,1998.3 3378.6,1962.51L3378.6,1544.54C3378.6,1508.2 3368.14,1483.56 3347.22,1470.62C3340.89,1466.7 3282.98,1463.38 3203.93,1460.65C3205.09,1415.22 3200.64,1369.6 3190.97,1325.27C3181.73,1282.9 3163.28,1243.09 3136.42,1209.48C3115.59,1183.4 3089.99,1162.03 3061.69,1144.75ZM3943.6,1451.2L3865.95,1451.2L3865.95,2055.02L3943.6,2055.02C3973.88,2055.02 4003.48,2051.72 4032.39,2045.11C4061.3,2038.5 4086.64,2024.73 4108.39,2003.81C4130.14,1982.88 4147.9,1952.73 4161.66,1913.36C4175.43,1873.98 4182.32,1820.98 4182.32,1754.35C4182.32,1688.82 4175.71,1636.09 4162.49,1596.17C4149.27,1556.25 4132.07,1525.54 4110.86,1504.07C4089.66,1482.59 4064.33,1468.41 4034.87,1461.53C4005.41,1454.64 3974.99,1451.2 3943.6,1451.2Z" style="fill:rgb(17,126,105);fill-rule:nonzero;"/>
        </g>
        <g transform="matrix(1691.67,0,0,1691.67,1786.88,2361.47)">
            <path d="M0.801,-0.54C0.801,-0.436 0.747,-0.379 0.638,-0.369L0.638,-0.364C0.695,-0.362 0.739,-0.347 0.772,-0.317C0.805,-0.288 0.821,-0.245 0.821,-0.189C0.821,-0.166 0.818,-0.142 0.813,-0.12C0.807,-0.097 0.795,-0.077 0.777,-0.06C0.758,-0.042 0.732,-0.028 0.697,-0.017C0.662,-0.006 0.616,-0 0.557,-0L0.02,-0L0.02,-0.181C0.049,-0.181 0.069,-0.185 0.082,-0.193C0.094,-0.2 0.1,-0.215 0.1,-0.236L0.1,-0.483C0.1,-0.504 0.094,-0.519 0.082,-0.527C0.069,-0.534 0.049,-0.538 0.02,-0.538L0.02,-0.719L0.591,-0.719C0.636,-0.719 0.672,-0.714 0.7,-0.704C0.727,-0.694 0.749,-0.681 0.764,-0.664C0.779,-0.647 0.789,-0.628 0.793,-0.607C0.798,-0.585 0.801,-0.563 0.801,-0.54ZM0.461,-0.181C0.488,-0.181 0.507,-0.186 0.518,-0.197C0.528,-0.208 0.533,-0.225 0.533,-0.25C0.533,-0.275 0.528,-0.293 0.518,-0.304C0.507,-0.315 0.488,-0.321 0.461,-0.321L0.388,-0.321L0.388,-0.181L0.461,-0.181ZM0.388,-0.407L0.462,-0.407C0.482,-0.407 0.497,-0.414 0.506,-0.427C0.515,-0.439 0.519,-0.455 0.519,-0.473C0.519,-0.49 0.515,-0.506 0.506,-0.519C0.497,-0.532 0.482,-0.538 0.462,-0.538L0.388,-0.538L0.388,-0.407Z" style="fill:rgb(30,86,159);fill-rule:nonzero;"/>
        </g>
        <g transform="matrix(1,0,0,1,-2.11619,-27.5684)">
            <circle cx="457.168" cy="2009.74" r="45.276" style="fill:rgb(250,160,43);"/>
        </g>
        <g transform="matrix(0.57935,0,0,0.57935,190.192,985.449)">
            <circle cx="457.168" cy="2009.74" r="45.276" style="fill:rgb(250,160,43);"/>
        </g>
        <g transform="matrix(0.929894,0,0,0.929894,-77.9889,393.274)">
            <circle cx="457.168" cy="2009.74" r="45.276" style="fill:rgb(250,160,43);"/>
        </g>
        <g transform="matrix(0.485873,0,0,0.485873,467.818,1327.74)">
            <circle cx="457.168" cy="2009.74" r="45.276" style="fill:rgb(250,160,43);"/>
        </g>
    </g>
</svg>
