<?xml version="1.0" encoding="UTF-8" standalone="no"?>
<!DOCTYPE svg PUBLIC "-//W3C//DTD SVG 1.1//EN" "http://www.w3.org/Graphics/SVG/1.1/DTD/svg11.dtd">
<svg width="100%" height="100%" viewBox="0 0 1000 1000" version="1.1" xmlns="http://www.w3.org/2000/svg" xmlns:xlink="http://www.w3.org/1999/xlink" xml:space="preserve" xmlns:serif="http://www.serif.com/" style="fill-rule:evenodd;clip-rule:evenodd;stroke-linejoin:round;stroke-miterlimit:2;">
    <path d="M1000,250C1000,112.021 887.979,0 750,0L250,0C112.021,0 0,112.021 0,250L0,750C0,887.979 112.021,1000 250,1000L750,1000C887.979,1000 1000,887.979 1000,750L1000,250Z" style="fill:url(#_Linear1);"/>
    <clipPath id="_clip2">
        <path d="M1000,250C1000,112.021 887.979,0 750,0L250,0C112.021,0 0,112.021 0,250L0,750C0,887.979 112.021,1000 250,1000L750,1000C887.979,1000 1000,887.979 1000,750L1000,250Z"/>
    </clipPath>
    <g clip-path="url(#_clip2)">
        <g transform="matrix(1,0,0,1,-10.7577,-12.6994)">
            <g transform="matrix(-0.699265,0.699265,-0.612507,-0.612507,1325.73,564.991)">
                <path d="M590.692,161.903C590.692,133.331 570.373,110.134 545.346,110.134C520.319,110.134 500,133.331 500,161.903L500,573.231C500,601.803 520.319,625 545.346,625C570.373,625 590.692,601.803 590.692,573.231L590.692,161.903Z" style="fill:rgb(39,26,72);"/>
            </g>
            <g transform="matrix(0.699265,0.699265,-0.612507,0.612507,563.05,114.717)">
                <path d="M590.692,161.903C590.692,133.331 570.373,110.134 545.346,110.134C520.319,110.134 500,133.331 500,161.903L500,573.231C500,601.803 520.319,625 545.346,625C570.373,625 590.692,601.803 590.692,573.231L590.692,161.903Z" style="fill:rgb(39,26,72);"/>
            </g>
        </g>
        <g transform="matrix(1,0,0,1,-427.749,-429.691)">
            <g transform="matrix(-0.699265,0.699265,-0.612507,-0.612507,1325.73,564.991)">
                <path d="M590.692,161.903C590.692,133.331 570.373,110.134 545.346,110.134C520.319,110.134 500,133.331 500,161.903L500,573.231C500,601.803 520.319,625 545.346,625C570.373,625 590.692,601.803 590.692,573.231L590.692,161.903Z" style="fill:rgb(39,26,72);"/>
            </g>
            <g transform="matrix(0.699265,0.699265,-0.612507,0.612507,563.05,114.717)">
                <path d="M590.692,161.903C590.692,133.331 570.373,110.134 545.346,110.134C520.319,110.134 500,133.331 500,161.903L500,573.231C500,601.803 520.319,625 545.346,625C570.373,625 590.692,601.803 590.692,573.231L590.692,161.903Z" style="fill:rgb(39,26,72);"/>
            </g>
        </g>
    </g>
    <g transform="matrix(1,0,0,1,-416.992,0)">
        <path d="M708.496,537.691C802.766,537.691 879.301,614.226 879.301,708.496C879.301,802.766 802.766,879.301 708.496,879.301C614.226,879.301 537.691,802.766 537.691,708.496C537.691,614.226 614.226,537.691 708.496,537.691ZM708.496,601.753C767.409,601.753 815.239,649.583 815.239,708.496C815.239,767.409 767.409,815.239 708.496,815.239C649.583,815.239 601.753,767.409 601.753,708.496C601.753,649.583 649.583,601.753 708.496,601.753Z" style="fill:rgb(226,52,33);"/>
    </g>
    <g transform="matrix(1,0,0,1,0,-416.992)">
        <path d="M708.496,537.691C802.766,537.691 879.301,614.226 879.301,708.496C879.301,802.766 802.766,879.301 708.496,879.301C614.226,879.301 537.691,802.766 537.691,708.496C537.691,614.226 614.226,537.691 708.496,537.691ZM708.496,601.753C767.409,601.753 815.239,649.583 815.239,708.496C815.239,767.409 767.409,815.239 708.496,815.239C649.583,815.239 601.753,767.409 601.753,708.496C601.753,649.583 649.583,601.753 708.496,601.753Z" style="fill:rgb(226,52,33);"/>
    </g>
    <defs>
        <linearGradient id="_Linear1" x1="0" y1="0" x2="1" y2="0" gradientUnits="userSpaceOnUse" gradientTransform="matrix(827,827,-827,827,63.63,109.157)"><stop offset="0" style="stop-color:rgb(238,238,238);stop-opacity:1"/><stop offset="1" style="stop-color:rgb(165,165,165);stop-opacity:1"/></linearGradient>
    </defs>
</svg>
